<?xml version="1.0" encoding="utf-8"?>
<!-- Generator: Adobe Illustrator 26.5.0, SVG Export Plug-In . SVG Version: 6.00 Build 0)  -->
<svg version="1.1" id="Layer_2_00000021834214920308343460000015828988499763793588_"
	 xmlns="http://www.w3.org/2000/svg" xmlns:xlink="http://www.w3.org/1999/xlink" x="0px" y="0px" viewBox="0 0 508.7 463.7"
	 style="enable-background:new 0 0 508.7 463.7;" xml:space="preserve">
<style type="text/css">
	.st0{fill:#0D4B5F;}
	.st1{fill:#F2BB9B;}
	.st2{fill:#FFFAF1;}
</style>
<g id="Layer_1-2">
	<g>
		<path class="st0" d="M183.7,429.9c-27-6-44-21.7-67-55.7c-8-11.9-7-10-26.6-41.7c-12.9-20.9-19.7-45.2-30.4-67.3
			C53.1,251.7,46.7,239,44.3,224c-11.5-71.6,62.4-121.7,125.2-133.2c31.1-5.7,64.6,19.3,69.6,54c2.7,18.9-2.3,38-9.8,55.2
			c-7.1,16.2-7.9,27.8-10.8,46.2c-4.4,27.8,37.7,75,35.2,81.1c-11.5,28.4-43,37-33,94c0,0-2.6,5.5-12,8
			C200.9,431.3,186.4,430.5,183.7,429.9L183.7,429.9z M209.9,90.8c18.6,3.2,36.9-15.1,40-33.7c3.1-18.6-8-44-26.6-47.2
			S185.6,27,182.5,45.7C179.3,64.3,191.3,87.6,209.9,90.8z M146,78.3c14.4,0,26.1-12.4,26.1-27.7c0.1-15.4-11.1-33.2-25.5-33.2
			S120.1,35,120.1,50.4S131.7,78.2,146,78.3L146,78.3z M93.7,98.3c12.7-2.6,20.8-15.8,18-29.5s-18.3-29.1-31-26.5
			c-12.7,2.6-17.9,22.2-15.1,35.9C68.4,91.9,81,100.9,93.7,98.3L93.7,98.3z M35.4,128.2c11.9,5,25,0.8,29.3-9.3s-2-22.3-14-27.3
			c-11.9-5-25-0.8-29.3,9.3S23.5,123.2,35.4,128.2z M23.1,141.2c-10.1-2.6-20.2,2.9-22.6,12.3s3.9,19,14,21.6
			c10.1,2.6,20.2-2.9,22.6-12.3S33.2,143.8,23.1,141.2z"/>
		<path class="st1" d="M455.9,270.3c-4.3,14.8-12.2,26.3-20.5,39c-13.5,20.8-25.9,42.8-38.9,63.9c-6.5,10.6-14.6,22.3-23.9,33.4
			c-27.4,32.7-70.9,62.4-113.2,35.7c-56.8-35.8-22.8-73.5-13.2-86.9c17.7-24.5,23.5-54.6,31.9-84.6c5.1-18.1-0.1-30.5-5.2-47.6
			c-5.4-18.1-8.1-37.9-3-56.4c9.3-34.1,45.2-51.6,76.6-45.4c14.1,2.8,54.1,19.9,77.1,45.8C453.7,201,463.3,244.8,455.9,270.3
			L455.9,270.3z M300.2,111.5c19,2.3,36.3-18.2,38.6-37.1s-11.1-43.9-30.1-46.2c-19-2.3-36.4,18.9-38.7,37.8
			S281.2,109.2,300.2,111.5L300.2,111.5z M371.7,112.3c14.5,1.8,27.7-9.6,29.6-25c1.9-15.4-7.1-35.2-21.6-37s-28.9,15.3-30.8,30.7
			C347,96.3,357.2,110.5,371.7,112.3z M421.8,138.5c12.5,4.2,26.2-3.2,30.8-16.6s2.6-33.4-9.9-37.6c-12.5-4.2-30.8,9.1-35.3,22.4
			S409.3,134.3,421.8,138.5L421.8,138.5z M448.4,162.7c3,10.6,15.6,16.4,28.2,12.9c12.6-3.5,20.4-15,17.4-25.6
			c-3-10.6-15.6-16.4-28.2-12.9C453.2,140.6,445.4,152.1,448.4,162.7z M508.6,205.3c-1.2-9.6-10.7-16.4-21.2-15.1
			c-10.5,1.3-18,10.2-16.8,19.8c1.2,9.6,10.7,16.4,21.2,15.1C502.3,223.8,509.8,215,508.6,205.3z"/>
	</g>
	<path class="st2" d="M313.7,280.3l-63.2,47l-58.8-53c-67-68,3-139,64-71C322.7,136.3,386.7,213.3,313.7,280.3z"/>
</g>
</svg>
